<svg xmlns="http://www.w3.org/2000/svg" viewBox="0 0 2480 965" width="2480" height="965"><g transform="translate(0.000000,965.000000) scale(0.100000,-0.100000)"
fill="#e7b897" stroke="none">
<path d="M5834 8301 c-43 -26 -45 -31 -28 -81 11 -33 14 -66 9 -125 -4 -51 -1
-114 9 -173 8 -51 12 -101 9 -111 -3 -10 4 -36 15 -57 14 -29 22 -79 31 -189
12 -155 22 -230 46 -350 28 -137 35 -189 45 -329 14 -182 28 -334 40 -416 5
-36 12 -103 15 -150 3 -47 13 -121 20 -165 16 -85 30 -237 45 -480 5 -82 14
-174 20 -204 5 -29 10 -80 10 -112 0 -32 5 -61 11 -65 7 -4 9 -24 6 -55 -5
-42 -3 -52 24 -85 16 -20 29 -40 29 -45 0 -17 108 -119 126 -119 35 0 49 17
53 63 1 4 22 7 49 5 43 -3 47 -5 47 -28 0 -16 7 -26 19 -28 15 -3 18 1 14 22
-7 36 46 70 147 96 106 27 155 47 185 75 14 13 41 30 60 39 19 9 44 21 55 28
96 60 153 95 170 104 10 6 23 24 27 41 9 35 93 133 114 133 16 0 19 -36 4 -45
-6 -4 -21 -28 -35 -54 -27 -55 -139 -158 -182 -170 -15 -4 -35 -19 -43 -34
-13 -24 -13 -28 3 -44 16 -16 36 -18 184 -15 146 2 168 0 185 -15 17 -15 23
-15 51 -3 22 9 65 13 132 11 55 -1 111 2 125 7 40 17 187 166 337 344 26 31
77 91 113 134 36 42 95 108 133 145 37 37 67 73 67 79 0 6 33 46 73 90 39 43
95 105 122 139 96 118 117 141 131 141 20 0 17 -23 -5 -51 -10 -13 -21 -38
-25 -56 -4 -17 -16 -48 -27 -69 -10 -21 -19 -44 -19 -50 0 -7 -13 -41 -30 -76
-16 -34 -30 -74 -30 -86 0 -13 -8 -36 -18 -50 -10 -15 -33 -67 -51 -117 -61
-167 -104 -270 -123 -294 -10 -13 -18 -36 -18 -50 0 -15 -9 -44 -20 -66 -11
-22 -20 -45 -20 -52 0 -7 -22 -67 -50 -133 -73 -174 -69 -229 20 -315 23 -22
51 -56 62 -75 12 -19 45 -67 74 -106 29 -39 56 -84 60 -100 9 -35 40 -90 69
-124 25 -29 61 -101 71 -145 4 -16 10 -35 15 -40 4 -6 11 -29 15 -52 5 -34 16
-50 60 -88 31 -26 62 -45 72 -43 9 2 22 19 28 37 6 19 23 43 37 53 19 14 27
29 27 51 0 18 7 57 15 87 8 30 18 87 21 125 4 39 13 86 21 105 11 24 21 130
34 339 13 211 23 311 32 325 8 12 22 42 31 67 39 102 161 187 272 189 33 0 64
-25 48 -39 -5 -5 -31 -14 -58 -20 -72 -18 -141 -56 -167 -93 -12 -18 -31 -40
-42 -49 -27 -22 -50 -200 -48 -373 1 -84 -4 -149 -13 -185 -8 -31 -17 -78 -21
-106 -4 -27 -11 -57 -15 -65 -5 -8 -13 -76 -20 -149 -10 -120 -15 -142 -44
-200 -18 -36 -38 -83 -45 -103 -16 -49 -63 -98 -93 -98 -21 0 -24 -5 -24 -42
-1 -24 -5 -56 -9 -71 -7 -28 -7 -28 28 -22 31 6 37 4 52 -19 16 -24 23 -26 90
-26 72 0 250 32 289 52 12 6 30 19 41 28 32 29 176 100 220 109 22 5 60 14 85
20 25 6 57 13 72 16 19 4 30 13 34 30 4 17 22 32 61 50 31 14 61 25 68 25 8 0
42 15 78 34 35 19 86 41 113 49 27 8 83 31 124 51 41 20 81 36 88 36 11 0 101
36 177 70 32 15 108 41 130 45 11 2 37 7 58 10 28 5 40 12 47 31 5 13 15 24
23 24 7 0 31 9 52 20 22 12 60 24 84 27 26 4 57 17 75 32 83 71 152 101 230
101 46 0 54 3 87 40 21 23 46 40 59 40 11 0 31 5 42 11 11 6 48 19 82 28 33
10 104 43 156 74 52 31 100 57 107 57 21 0 156 47 198 70 29 15 50 19 76 15
34 -6 40 -2 112 67 74 70 77 75 77 118 -1 65 -28 117 -101 191 -35 35 -72 76
-81 90 -13 21 -22 25 -47 21 -31 -4 -54 13 -93 70 -9 14 -37 35 -61 46 -24 11
-56 36 -70 54 -49 62 -56 67 -114 84 -32 9 -75 25 -95 35 -44 23 -79 24 -116
5 -15 -8 -54 -19 -87 -25 -48 -9 -62 -9 -73 3 -18 18 -9 32 25 41 41 10 53 24
53 59 0 42 -23 73 -68 92 l-37 15 27 15 c49 26 49 95 0 102 -25 4 -52 -32 -52
-70 0 -16 -5 -28 -11 -28 -17 0 -53 21 -69 40 -8 10 -44 30 -80 45 -76 31
-188 83 -210 96 -8 5 -24 13 -35 16 -11 4 -43 19 -72 34 -28 15 -66 30 -83 34
-18 4 -57 18 -86 31 -30 13 -62 24 -72 24 -9 0 -39 12 -67 25 -27 14 -59 25
-70 25 -12 0 -38 9 -60 20 -22 11 -45 20 -52 20 -8 0 -40 9 -72 20 -32 10
-100 26 -152 34 -52 9 -128 24 -169 34 -171 43 -349 72 -445 72 -38 0 -104 6
-145 14 -41 8 -113 17 -160 21 l-85 7 -53 57 c-83 87 -112 141 -77 141 18 0
20 21 4 37 -8 8 -18 8 -35 1 -22 -10 -28 -7 -64 32 -22 24 -40 47 -40 51 0 5
-40 49 -90 100 -49 50 -90 94 -90 98 0 14 -312 296 -349 315 -20 10 -61 39
-91 65 -137 117 -183 136 -301 118 -98 -14 -118 -3 -76 41 57 60 17 129 -112
193 -42 20 -91 58 -139 105 -42 41 -81 74 -87 74 -7 0 -29 11 -49 25 -26 18
-50 25 -83 25 -54 0 -189 49 -305 110 -20 11 -46 20 -56 20 -10 0 -40 11 -65
24 -25 14 -97 38 -160 55 -63 16 -141 43 -174 59 -47 24 -80 32 -174 41 -182
17 -298 15 -335 -8z m266 -42 c41 -11 91 -27 110 -35 19 -8 67 -23 105 -33
168 -45 212 -59 250 -78 22 -11 59 -24 82 -28 24 -4 45 -11 48 -15 3 -5 22
-14 43 -20 121 -39 455 -203 617 -304 27 -17 72 -42 100 -56 76 -39 74 -61
-12 -100 -221 -100 -413 -281 -456 -430 -49 -172 -50 -172 -43 -281 3 -58 13
-129 21 -156 8 -28 19 -74 25 -102 8 -42 53 -135 137 -284 7 -12 13 -34 13
-48 0 -15 7 -32 16 -40 51 -42 86 -194 85 -371 -1 -151 -14 -208 -69 -296 -16
-26 -40 -66 -53 -90 -13 -24 -39 -53 -58 -65 -20 -12 -52 -38 -72 -58 -20 -20
-54 -42 -75 -49 -22 -7 -48 -20 -59 -29 -11 -9 -67 -40 -125 -69 -82 -41 -132
-58 -225 -78 -151 -32 -224 -30 -262 9 -25 25 -27 34 -35 159 -4 73 -12 167
-18 208 -5 41 -17 136 -25 210 -8 74 -22 182 -30 240 -18 132 -34 263 -45 360
-30 269 -41 351 -55 400 -8 30 -20 138 -25 240 -6 102 -16 208 -21 235 -26
134 -57 395 -84 707 -8 81 -16 152 -20 157 -15 26 -24 127 -14 158 22 68 67
74 229 32z m1440 -753 c0 -17 -17 -30 -58 -44 -18 -6 -58 -31 -90 -55 -31 -24
-72 -52 -91 -62 -36 -18 -141 -120 -141 -136 0 -6 -8 -24 -17 -42 -26 -49 -62
-196 -62 -252 0 -102 43 -300 72 -334 8 -9 17 -28 21 -43 3 -15 17 -44 31 -64
14 -20 25 -43 25 -50 0 -20 -19 -64 -27 -64 -18 0 -67 106 -68 145 0 32 -5 42
-25 52 -56 28 -97 250 -82 450 l8 123 52 49 c39 38 52 57 52 79 0 38 31 76 77
95 21 9 51 32 67 52 43 55 124 103 182 108 27 2 55 4 62 5 6 1 12 -4 12 -12z
m232 -17 c45 -24 269 -199 378 -295 187 -165 411 -406 557 -599 87 -115 102
-127 165 -130 203 -11 383 -29 508 -50 241 -42 590 -117 650 -141 19 -8 62
-21 94 -30 33 -8 65 -19 70 -23 6 -5 36 -16 66 -24 30 -9 89 -29 130 -45 41
-17 99 -39 127 -51 188 -75 570 -271 580 -298 3 -8 -1 -21 -8 -28 -20 -20
-186 -102 -255 -126 -33 -11 -90 -32 -129 -46 -138 -49 -273 -85 -435 -115
l-165 -31 -425 -3 c-269 -1 -436 -6 -455 -13 -16 -5 -53 -18 -81 -28 -29 -10
-79 -39 -112 -65 -100 -77 -142 -190 -156 -418 -27 -412 -39 -541 -58 -610
-25 -92 -66 -200 -84 -219 -21 -22 -48 9 -79 88 -14 36 -47 104 -73 151 -27
47 -71 123 -97 170 -52 92 -175 278 -232 349 -42 54 -41 75 6 201 18 47 38
103 45 125 13 39 43 111 72 170 13 27 62 158 114 300 10 28 35 93 55 145 20
52 47 122 60 155 13 33 39 103 60 155 83 214 95 250 95 274 0 15 -5 26 -11 26
-15 0 -197 -185 -264 -271 -33 -41 -86 -104 -120 -140 -105 -115 -171 -190
-306 -349 -72 -85 -180 -207 -240 -270 -59 -63 -117 -127 -128 -141 l-20 -26
-283 3 c-221 3 -284 7 -286 17 -1 7 27 39 64 72 116 102 219 267 250 401 32
141 12 410 -40 512 -13 26 -27 62 -31 79 -3 18 -10 35 -14 38 -10 6 -111 208
-144 290 -37 90 -50 170 -46 297 4 109 6 116 48 205 63 132 138 200 337 303
133 69 198 85 246 59z m-448 -1274 c9 -13 16 -32 16 -42 1 -10 8 -36 16 -58
38 -103 36 -380 -3 -433 -28 -38 -49 -39 -61 -2 -8 23 -8 40 3 71 26 72 29
184 8 289 -15 74 -21 168 -14 198 3 10 21 -2 35 -23z m3737 -554 c28 -26 16
-41 -30 -41 -21 0 -44 -6 -50 -14 -7 -8 -30 -17 -51 -21 -22 -4 -50 -15 -63
-25 -13 -10 -41 -22 -63 -26 -21 -3 -57 -17 -80 -30 -22 -13 -52 -24 -65 -24
-13 0 -34 -6 -45 -13 -12 -6 -37 -21 -55 -32 -19 -10 -74 -24 -124 -31 -49 -7
-153 -22 -230 -34 -128 -20 -166 -21 -435 -16 -299 6 -383 13 -378 31 2 6 105
11 278 12 151 0 300 4 330 7 30 3 114 12 187 20 78 9 144 21 164 32 26 13 49
15 110 11 73 -6 78 -5 93 18 10 15 36 29 73 40 31 9 66 23 77 31 11 8 33 14
48 14 25 0 52 11 208 83 67 31 75 32 101 8z m292 -21 c30 -11 63 -30 73 -42
11 -11 69 -58 129 -103 61 -45 119 -92 130 -105 11 -12 40 -36 65 -53 65 -43
117 -94 157 -155 30 -45 34 -57 25 -77 -14 -31 -83 -77 -157 -104 -33 -12 -65
-27 -71 -32 -6 -5 -42 -20 -80 -35 -90 -33 -168 -67 -281 -121 -51 -24 -126
-55 -165 -69 -40 -15 -77 -30 -83 -34 -17 -13 -197 -92 -255 -112 -30 -10 -93
-37 -140 -60 -155 -74 -185 -88 -195 -88 -6 0 -23 -7 -40 -16 -16 -9 -73 -32
-125 -51 -226 -85 -324 -126 -460 -191 -80 -38 -156 -73 -170 -77 -32 -9 -143
-57 -240 -102 -41 -20 -97 -44 -125 -53 -27 -10 -111 -47 -187 -84 -75 -36
-143 -66 -152 -66 -8 0 -38 -9 -67 -20 -28 -11 -60 -18 -70 -15 -21 7 -49 54
-49 82 0 30 49 126 80 158 29 30 60 108 60 151 0 12 12 57 26 100 32 98 60
352 68 614 6 170 8 189 31 235 37 76 132 140 245 167 27 6 178 9 385 9 191 -1
375 3 420 9 165 22 391 63 415 75 14 7 43 15 65 19 61 11 173 51 281 101 53
25 102 45 110 45 7 0 48 19 91 41 66 35 170 77 195 78 4 1 32 -8 61 -19z"/>
<path d="M7674 7647 c-14 -38 0 -52 59 -60 63 -9 87 0 87 34 0 24 -9 28 -79
35 -50 6 -62 4 -67 -9z"/>
<path d="M5795 7480 c-10 -46 4 -130 21 -130 12 0 14 15 12 77 -3 80 -21 109
-33 53z"/>
<path d="M7980 7466 c0 -16 48 -46 73 -46 20 0 42 29 31 40 -5 4 -30 11 -56
15 -40 6 -48 5 -48 -9z"/>
<path d="M10771 6096 c-15 -18 4 -33 44 -36 47 -3 55 -1 55 15 0 31 -77 48
-99 21z"/>
<path d="M8410 5914 c-6 -14 -10 -40 -10 -59 0 -19 -4 -44 -9 -58 -5 -13 -6
-29 -1 -37 9 -14 30 -5 30 13 0 6 14 26 32 44 34 35 42 80 18 107 -19 24 -49
19 -60 -10z"/>
<path d="M11637 5642 c-21 -23 -22 -38 -2 -46 18 -6 55 27 55 49 0 21 -33 19
-53 -3z"/>
<path d="M4116 4516 c-68 -21 -56 -36 28 -36 68 0 76 2 76 19 0 11 -9 21 -22
25 -29 7 -34 7 -82 -8z"/>
<path d="M3480 4450 c-135 -17 -225 -32 -241 -40 -9 -5 -62 -25 -118 -44 -64
-22 -116 -47 -137 -66 -19 -16 -40 -30 -47 -30 -15 0 -179 -135 -191 -158 -5
-9 -22 -32 -38 -50 -15 -18 -28 -37 -28 -42 0 -5 -22 -45 -50 -90 -27 -45 -50
-87 -50 -94 0 -7 -10 -48 -21 -92 -32 -116 -31 -301 1 -415 13 -46 31 -93 41
-104 9 -11 20 -31 24 -45 4 -14 16 -36 26 -49 11 -13 19 -30 19 -38 0 -26 113
-144 194 -201 153 -110 171 -122 185 -122 16 0 74 -34 114 -67 16 -13 36 -23
44 -23 15 0 129 -50 163 -71 8 -5 31 -16 50 -25 19 -9 62 -29 95 -44 33 -16
84 -38 114 -50 31 -12 73 -40 99 -65 25 -25 53 -47 62 -50 27 -9 81 -82 87
-120 3 -19 3 -45 -1 -60 -8 -29 -88 -115 -109 -115 -8 0 -22 -9 -32 -20 -25
-27 -129 -58 -224 -66 -117 -10 -345 23 -393 57 -14 11 -41 19 -60 19 -18 0
-64 15 -103 34 -208 101 -224 107 -243 97 -18 -9 -134 -192 -178 -281 -13 -25
-32 -54 -43 -64 -12 -11 -21 -24 -21 -31 0 -7 -10 -20 -21 -31 -31 -27 -49
-76 -49 -132 0 -54 9 -67 55 -78 17 -3 37 -13 46 -21 9 -8 45 -25 80 -37 35
-13 102 -37 149 -54 47 -17 121 -35 165 -41 44 -5 100 -19 125 -30 68 -30 254
-46 503 -43 219 2 310 13 382 47 17 7 62 20 101 28 39 9 102 30 140 47 38 18
85 38 105 45 49 18 192 130 254 198 95 106 108 127 187 307 l32 75 0 200 c0
198 0 200 -27 250 -15 27 -27 57 -27 66 0 9 -13 42 -30 75 -38 77 -264 310
-330 341 -25 11 -82 44 -128 71 -46 28 -100 56 -120 63 -20 7 -46 18 -57 24
-11 7 -33 16 -50 20 -16 3 -39 15 -50 25 -11 10 -58 32 -105 50 -231 87 -364
182 -394 282 -12 41 -12 53 2 95 8 26 20 54 26 62 20 26 116 81 162 92 57 15
353 6 437 -12 49 -11 66 -11 121 4 35 9 75 17 89 17 37 0 141 74 181 130 50
69 93 158 110 226 8 33 17 69 21 81 9 27 -25 63 -59 63 -13 0 -43 9 -67 19
-24 11 -69 23 -99 26 -30 4 -76 15 -102 26 -26 10 -66 19 -90 19 -24 0 -74 7
-113 15 -82 18 -445 28 -545 15z m425 -50 c188 -15 532 -88 572 -121 42 -36
-43 -246 -135 -332 -101 -93 -184 -109 -444 -82 -169 17 -282 13 -378 -15 -61
-18 -129 -76 -156 -133 -28 -61 -30 -94 -8 -167 12 -42 29 -67 74 -111 56 -55
157 -116 229 -140 114 -38 596 -278 658 -328 211 -169 316 -324 347 -512 23
-137 20 -232 -8 -349 -51 -204 -158 -353 -352 -490 -57 -40 -215 -120 -238
-120 -6 0 -24 -7 -41 -16 -16 -8 -95 -29 -175 -47 -138 -29 -156 -31 -375 -31
-194 0 -247 3 -340 21 -60 12 -134 25 -163 28 -86 11 -339 97 -449 153 -75 38
-84 59 -50 110 13 20 37 60 52 87 34 62 129 224 168 288 19 30 36 47 49 47 11
0 54 -16 96 -36 240 -114 397 -154 612 -154 239 0 384 61 450 190 22 43 27
121 10 165 -41 107 -189 205 -555 366 -164 72 -237 111 -385 208 -94 61 -237
197 -269 257 -12 22 -35 63 -50 92 -45 82 -65 180 -65 312 0 178 32 287 126
435 85 133 193 228 348 307 89 44 134 60 285 99 100 26 365 35 560 19z"/>
<path d="M7644 4409 c-4 -8 -122 -10 -393 -9 -412 2 -470 -4 -495 -46 -6 -11
-38 -55 -71 -98 -33 -43 -70 -92 -83 -109 -12 -18 -70 -87 -129 -154 -92 -107
-149 -179 -278 -349 -16 -21 -50 -62 -75 -90 -25 -28 -65 -77 -90 -109 -82
-106 -132 -157 -144 -145 -8 8 -11 174 -11 541 0 528 0 531 -21 548 -19 15
-52 17 -355 14 -184 -1 -345 -5 -359 -9 -14 -3 -33 -13 -42 -21 -17 -15 -18
-99 -18 -1493 0 -1326 2 -1479 16 -1490 11 -10 50 -13 141 -11 104 1 129 5
151 21 15 10 65 29 112 41 52 13 95 31 111 45 32 30 47 30 51 2 2 -18 11 -24
36 -26 27 -3 32 0 32 18 0 12 -10 25 -25 32 -32 14 -32 35 0 50 29 13 61 58
112 159 59 116 64 149 58 434 -6 264 1 425 18 425 13 0 87 -84 109 -123 10
-17 60 -78 112 -136 94 -106 158 -186 218 -271 17 -25 44 -60 60 -78 15 -18
28 -38 28 -45 0 -7 21 -33 46 -57 25 -25 61 -67 79 -95 18 -27 65 -86 104
-130 39 -44 83 -102 96 -129 44 -87 35 -86 559 -86 397 0 454 2 474 16 31 22
26 62 -10 83 -15 9 -42 37 -59 64 -17 26 -41 54 -53 62 -11 9 -41 44 -66 79
-25 34 -61 85 -80 112 -19 27 -78 93 -130 147 -52 54 -97 103 -99 110 -8 22
-102 131 -221 256 -44 46 -80 92 -80 101 0 9 -21 32 -46 51 -25 19 -53 47 -61
63 -8 16 -50 66 -94 113 -43 46 -79 88 -79 92 0 5 -27 42 -60 81 -33 39 -60
76 -60 81 0 5 9 18 20 29 16 16 18 24 8 45 -9 21 -7 29 17 60 15 20 33 39 41
42 8 3 22 21 31 40 9 20 31 44 49 55 18 10 35 25 37 33 3 7 16 15 29 17 13 2
24 11 26 23 8 43 182 241 253 287 15 9 30 29 33 44 4 14 23 42 43 62 19 21 59
69 88 107 29 39 82 99 119 135 36 35 66 69 66 76 0 6 9 19 20 29 22 20 36 13
42 -20 2 -15 11 -20 33 -20 25 0 31 4 33 27 2 20 -4 31 -22 44 -33 21 -33 30
4 49 17 9 30 23 30 33 0 9 29 47 65 84 70 73 78 98 54 167 -11 31 -41 42 -55
20z m-1833 -69 c18 -10 19 -27 19 -561 0 -360 4 -557 10 -570 21 -37 46 -21
134 90 48 61 92 111 97 113 5 2 23 24 41 49 18 26 69 90 113 144 44 53 103
125 130 160 159 199 286 353 300 365 9 8 32 37 50 65 18 27 53 73 78 100 l45
50 408 0 c396 0 409 -1 412 -19 2 -11 -4 -25 -13 -32 -10 -7 -27 -26 -39 -43
-11 -16 -66 -78 -121 -138 -55 -60 -136 -152 -180 -203 -214 -252 -509 -584
-686 -775 -30 -33 -71 -82 -89 -108 -34 -48 -34 -48 -17 -80 20 -36 408 -499
548 -654 51 -56 353 -412 519 -612 36 -43 87 -104 114 -134 30 -35 46 -63 42
-72 -5 -13 -58 -15 -438 -13 l-432 3 -80 102 c-45 56 -115 145 -156 199 -41
54 -118 150 -170 214 -52 64 -120 150 -150 190 -30 39 -83 104 -117 144 -61
70 -91 109 -220 279 -36 48 -74 87 -83 87 -39 0 -40 -13 -40 -369 0 -313 -2
-354 -20 -431 -22 -89 -65 -183 -109 -237 -40 -48 -129 -117 -196 -151 -96
-49 -346 -82 -374 -48 -8 10 -11 399 -12 1447 0 1350 1 1434 17 1446 23 17
635 19 665 3z"/>
<path d="M2822 4318 c-35 -17 -24 -43 18 -43 31 0 35 3 35 25 0 28 -19 34 -53
18z"/>
<path d="M7628 4154 c-16 -34 0 -59 37 -59 37 0 53 25 37 59 -8 18 -19 26 -37
26 -18 0 -29 -8 -37 -26z"/>
<path d="M2587 4144 c-12 -12 -8 -51 7 -64 8 -6 25 -10 38 -8 19 2 23 9 23 38
0 32 -3 35 -30 38 -17 2 -34 0 -38 -4z"/>
<path d="M17117 3941 c-20 -22 -39 -53 -43 -68 -3 -16 -10 -45 -15 -66 -6 -20
-6 -43 -2 -50 4 -6 10 -484 13 -1062 l6 -1050 23 -60 c12 -33 25 -72 28 -88 7
-34 22 -43 107 -58 46 -7 84 -22 117 -44 49 -32 52 -33 137 -28 65 4 97 11
127 28 22 12 65 30 97 39 42 12 63 25 85 52 15 20 42 50 59 67 25 26 33 43 37
87 3 30 3 75 -1 100 -6 40 -11 46 -42 57 -19 7 -53 12 -74 12 -49 1 -122 37
-147 73 -19 27 -20 51 -22 885 -2 853 -2 858 -24 926 -12 38 -27 75 -33 82 -6
8 -14 25 -18 38 -10 33 -92 102 -144 120 -45 16 -139 36 -199 44 -31 4 -39 0
-72 -36z m254 -97 c66 -37 112 -91 141 -168 l22 -61 3 -883 c2 -758 5 -887 18
-911 20 -40 91 -72 177 -80 89 -8 96 -17 74 -95 -12 -42 -30 -72 -64 -108 -56
-61 -82 -72 -188 -88 -68 -10 -98 -9 -180 4 -107 17 -139 33 -166 85 -9 18
-23 40 -31 49 -36 40 -37 81 -37 1184 0 1246 -13 1112 107 1104 54 -3 85 -11
124 -32z"/>
<path d="M3540 3725 c-17 -20 3 -45 37 -45 28 0 40 24 23 45 -16 19 -44 19
-60 0z"/>
<path d="M22440 3560 c-36 -4 -72 -10 -80 -13 -8 -3 -27 -8 -41 -11 -37 -8
-149 -145 -149 -183 -1 -55 -28 -139 -59 -185 -34 -51 -31 -49 -169 -67 -83
-11 -107 -27 -122 -80 -11 -43 -8 -330 4 -349 11 -19 71 -7 111 21 39 28 140
29 181 3 23 -16 26 -23 22 -61 -3 -23 -15 -56 -28 -72 -21 -30 -21 -31 -5 -64
16 -29 17 -71 16 -401 -1 -397 -1 -397 54 -478 12 -19 26 -51 30 -70 4 -19 18
-52 32 -72 22 -32 31 -38 62 -38 68 -1 131 -20 225 -68 46 -24 189 -9 227 23
18 14 48 26 77 30 91 12 114 26 159 94 23 35 54 77 70 93 26 27 27 32 25 120
-4 128 -5 129 -141 122 -197 -11 -210 -8 -243 43 -22 36 -23 48 -26 263 -4
263 11 509 33 526 8 6 77 14 152 18 l138 6 41 43 c34 36 43 53 58 123 9 45 24
90 31 100 8 11 15 34 15 51 0 25 -6 36 -27 49 -16 9 -41 26 -56 36 -31 22 -56
21 -183 -2 -63 -11 -76 -11 -104 4 -18 9 -44 16 -57 16 -13 0 -26 7 -29 15 -4
9 -1 66 6 128 12 106 11 116 -10 187 -12 41 -31 83 -42 93 -22 18 -77 20 -198
7z m149 -53 c7 -9 12 -86 13 -216 l3 -203 28 -24 c28 -24 32 -24 221 -24 154
0 196 -3 205 -14 22 -26 -50 -216 -86 -231 -10 -4 -87 -10 -172 -14 -152 -6
-153 -7 -177 -34 l-24 -28 0 -373 c0 -208 4 -397 10 -427 12 -66 54 -128 100
-151 44 -22 124 -23 208 -2 57 14 66 15 79 1 36 -36 -29 -182 -116 -260 -23
-20 -42 -37 -44 -37 -1 0 -29 -5 -62 -10 -78 -13 -254 -14 -329 -1 -100 17
-151 68 -210 210 l-25 58 -2 503 c-2 476 -3 504 -20 521 -20 20 -31 21 -186
23 -124 1 -127 4 -127 137 0 130 -1 129 150 129 150 0 159 4 174 77 24 126 55
226 81 268 33 52 100 94 189 117 80 21 104 22 119 5z"/>
<path d="M3695 3430 c-11 -17 15 -40 46 -40 33 0 45 15 29 35 -14 17 -66 20
-75 5z"/>
<path d="M6950 3367 c0 -21 60 -61 73 -48 8 8 4 18 -13 36 -25 27 -60 34 -60
12z"/>
<path d="M4032 3261 c-8 -4 -12 -17 -10 -27 2 -15 12 -19 43 -19 36 0 40 3 40
25 0 21 -5 25 -30 28 -16 1 -36 -2 -43 -7z"/>
<path d="M20805 3147 c-18 -42 -33 -55 -76 -63 -90 -16 -165 -48 -211 -90 -26
-24 -55 -44 -65 -44 -10 0 -30 15 -45 34 -49 61 -104 79 -264 84 -119 4 -145
2 -174 -13 l-33 -17 7 -81 c3 -45 11 -120 17 -167 7 -50 12 -339 13 -710 l3
-625 24 -12 c37 -19 438 -18 464 1 23 17 23 7 24 634 l1 403 25 23 c14 13 25
33 25 45 0 27 42 68 95 92 31 14 64 19 145 18 139 0 197 -21 233 -84 7 -12 30
-49 52 -82 l41 -60 2 -484 c3 -480 3 -484 24 -502 20 -16 41 -18 239 -15 182
2 221 6 234 19 14 13 16 83 15 602 0 481 -2 593 -14 620 -7 19 -19 58 -25 87
-9 40 -22 65 -54 99 -24 25 -67 78 -95 117 l-52 72 -79 21 c-44 12 -105 30
-135 41 -30 10 -108 24 -173 30 -73 7 -124 17 -134 26 -24 22 -39 17 -54 -19z
m250 -97 c180 -21 269 -65 372 -183 137 -157 135 -139 134 -831 -1 -364 -5
-553 -11 -561 -13 -16 -345 -18 -373 -3 -16 8 -17 39 -17 501 1 271 -3 506 -8
522 -16 54 -52 116 -94 161 -33 36 -54 48 -122 70 -97 30 -167 28 -286 -12
-83 -28 -177 -93 -199 -138 -11 -23 -13 -131 -13 -555 0 -454 -2 -528 -15
-543 -13 -15 -38 -17 -185 -17 -96 0 -179 4 -189 10 -18 9 -19 33 -19 632 0
485 -3 651 -15 756 -10 92 -12 138 -5 146 24 29 219 21 281 -11 15 -7 42 -31
60 -52 66 -76 90 -76 199 -2 58 39 179 90 217 90 10 1 29 7 43 15 30 17 120
19 245 5z"/>
<path d="M12179 3160 c-37 -5 -80 -15 -96 -23 -16 -9 -63 -25 -104 -36 -41
-11 -99 -27 -129 -36 -30 -10 -75 -22 -100 -29 -37 -9 -63 -29 -150 -116 -112
-112 -157 -166 -178 -215 -7 -16 -21 -39 -31 -50 -10 -11 -22 -38 -26 -60 -4
-21 -16 -53 -28 -70 -17 -23 -22 -45 -23 -100 0 -38 -3 -152 -5 -253 l-3 -183
25 -22 c17 -14 38 -55 59 -115 26 -75 38 -96 61 -107 15 -8 30 -24 34 -35 6
-17 71 -93 146 -167 12 -13 30 -23 39 -23 9 0 35 -13 56 -29 45 -32 87 -47
159 -57 28 -3 97 -22 154 -41 58 -19 123 -34 145 -34 23 1 91 1 152 1 100 1
114 3 130 22 25 27 48 35 146 48 121 16 174 38 230 92 49 47 49 48 42 95 -3
27 -13 60 -21 76 -7 15 -13 42 -11 61 2 39 -10 57 -66 98 -60 44 -145 37 -285
-21 -92 -39 -142 -41 -165 -6 -18 27 -41 31 -80 14 -19 -9 -41 -9 -88 0 -77
15 -140 50 -166 93 -12 18 -41 50 -66 71 -51 42 -59 63 -77 206 -10 81 -10 98
4 125 8 17 18 51 21 76 3 34 12 52 36 73 16 15 39 27 49 27 11 0 34 20 55 50
20 28 42 50 50 50 7 0 19 6 25 14 7 8 31 18 53 21 22 4 61 20 86 36 54 34 97
37 215 14 152 -29 325 -11 374 38 22 21 39 77 60 189 7 39 -61 103 -136 124
-72 21 -126 38 -176 57 -22 8 -94 23 -160 32 -66 9 -124 21 -129 26 -11 10
-11 10 -107 -1z m246 -109 c238 -32 377 -81 391 -137 10 -38 -34 -114 -82
-141 -48 -28 -139 -30 -299 -8 -161 23 -286 3 -390 -61 -26 -16 -58 -35 -71
-42 -44 -24 -114 -116 -146 -192 -57 -137 -57 -322 1 -445 15 -33 51 -88 79
-122 44 -52 67 -70 146 -109 88 -44 101 -47 215 -57 137 -12 228 -2 296 33 21
11 47 20 56 20 9 0 31 7 49 16 l33 17 42 -49 c45 -51 79 -133 73 -175 -2 -19
-21 -33 -95 -71 -102 -52 -143 -62 -321 -79 -125 -11 -279 -7 -402 13 -108 17
-334 144 -413 232 -82 91 -177 259 -177 310 0 17 -6 64 -14 105 -24 125 -1
372 45 478 32 75 129 210 183 257 112 95 250 172 346 192 38 8 237 31 285 33
17 0 93 -8 170 -18z"/>
<path d="M13815 3153 c-49 -8 -108 -21 -130 -30 -123 -48 -204 -76 -235 -80
-39 -6 -147 -92 -192 -153 -16 -21 -43 -49 -61 -63 -35 -27 -68 -87 -138 -252
l-42 -100 -8 -180 c-9 -216 1 -317 37 -356 13 -14 24 -29 24 -34 0 -18 80
-172 95 -185 9 -8 22 -28 30 -47 8 -18 19 -33 25 -33 7 0 33 -21 59 -47 56
-58 133 -113 181 -131 19 -7 70 -20 112 -28 43 -8 106 -25 141 -39 45 -16 101
-27 188 -34 136 -10 205 -2 249 30 14 11 61 26 105 34 63 12 92 24 139 56 35
25 74 43 98 47 33 4 52 18 114 79 41 40 74 82 74 93 0 10 11 31 24 47 13 15
27 44 31 63 10 49 63 171 83 193 15 17 16 44 13 245 -2 204 -5 230 -22 259
-19 31 -34 92 -48 202 -6 44 -13 58 -39 80 -18 14 -32 34 -32 43 0 21 -37 48
-67 48 -12 0 -64 33 -118 76 -112 87 -109 85 -198 119 -84 32 -199 62 -286 74
-36 6 -77 12 -91 14 -14 3 -65 -2 -115 -10z m335 -112 c147 -26 190 -42 263
-97 32 -25 65 -48 72 -51 19 -7 145 -153 178 -206 15 -25 30 -60 33 -78 3 -19
14 -52 25 -74 54 -118 53 -478 -1 -572 -11 -18 -24 -50 -30 -71 -5 -22 -21
-56 -35 -76 -14 -20 -31 -49 -39 -64 -44 -85 -143 -163 -309 -246 l-92 -46
-170 -9 c-265 -15 -416 3 -525 64 -14 8 -47 25 -75 38 -98 48 -209 167 -284
307 -33 62 -42 94 -55 181 -33 224 -13 464 51 593 51 104 116 190 191 249 65
52 175 117 198 117 6 0 31 9 55 19 56 25 261 51 359 46 41 -2 127 -13 190 -24z"/>
<path d="M13805 2776 c-132 -33 -209 -104 -270 -252 -122 -294 -21 -692 195
-772 30 -11 89 -25 132 -32 66 -11 86 -10 155 5 93 21 116 32 180 86 61 53
118 137 139 203 20 65 29 288 16 383 -19 137 -115 292 -211 342 -90 47 -232
63 -336 37z m227 -82 c128 -32 159 -56 168 -132 4 -38 10 -49 31 -59 42 -20
54 -42 56 -102 2 -31 5 -90 7 -131 6 -102 -9 -238 -29 -260 -9 -10 -39 -28
-66 -39 -46 -20 -49 -24 -49 -60 0 -51 -25 -72 -91 -77 -29 -2 -59 -10 -68
-18 -33 -30 -68 -36 -118 -21 -27 8 -67 19 -90 25 -45 11 -107 66 -119 104 -3
11 -21 37 -40 56 -26 27 -35 48 -40 85 -4 28 -15 67 -25 87 -24 47 -24 76 2
185 29 125 27 120 71 163 34 35 39 44 33 70 -10 47 40 91 140 123 44 15 89 26
100 27 11 0 68 -12 127 -26z"/>
<path d="M10219 3156 c-2 -2 -37 -9 -76 -14 -43 -6 -84 -19 -101 -31 -16 -11
-73 -32 -128 -47 -128 -34 -157 -47 -202 -89 -20 -19 -64 -61 -98 -92 -61 -58
-86 -94 -98 -145 -3 -15 -17 -44 -31 -64 -14 -20 -25 -47 -25 -61 0 -13 -4
-31 -9 -41 -14 -25 -39 -157 -45 -232 -7 -92 22 -403 46 -482 6 -20 23 -45 38
-57 19 -14 30 -33 35 -60 8 -48 67 -113 163 -179 35 -23 66 -52 71 -65 10 -25
88 -52 172 -60 25 -2 68 -16 96 -30 28 -14 75 -30 104 -36 93 -18 334 1 412
34 20 8 89 22 154 30 97 13 126 21 172 48 31 18 69 40 85 48 15 9 37 32 48 51
l20 34 -63 93 c-83 125 -103 134 -278 129 -112 -3 -130 -7 -166 -28 -36 -22
-51 -25 -140 -25 -81 0 -109 4 -145 21 -25 12 -71 32 -103 44 -39 16 -67 34
-85 58 -15 19 -44 54 -64 77 -47 52 -48 79 -5 105 31 20 44 20 312 15 410 -8
422 -8 463 -5 21 2 64 -7 96 -19 84 -31 123 -28 172 17 51 45 73 87 81 151 4
36 1 55 -12 75 -16 24 -34 99 -54 221 -10 62 -42 145 -70 181 -11 15 -21 34
-21 43 0 14 -74 102 -147 174 -46 46 -94 77 -139 93 -27 9 -83 32 -124 51
-105 49 -290 90 -311 69z m88 -96 c109 -15 167 -28 250 -57 59 -21 89 -40 165
-107 51 -45 98 -92 104 -105 6 -12 21 -29 33 -37 11 -8 21 -21 21 -27 0 -7 11
-33 25 -59 43 -81 85 -271 85 -385 0 -64 -4 -103 -12 -111 -9 -9 -142 -12
-535 -12 -519 0 -523 0 -544 -21 -18 -18 -21 -30 -17 -79 7 -98 93 -218 200
-278 109 -61 284 -77 455 -41 150 31 175 33 235 15 84 -24 162 -120 129 -159
-6 -8 -61 -39 -124 -70 -112 -57 -113 -57 -262 -73 -150 -16 -271 -15 -435 5
-59 6 -98 20 -182 60 -60 29 -108 56 -108 61 0 5 -20 21 -45 35 -24 15 -57 42
-72 60 -102 122 -133 189 -185 388 -28 108 -30 130 -25 216 9 145 74 355 140
452 49 74 144 169 230 232 44 32 159 71 267 91 98 17 114 18 207 6z"/>
<path d="M10185 2799 c-95 -19 -196 -77 -235 -134 -8 -12 -28 -42 -45 -65 -24
-36 -30 -53 -28 -93 1 -32 8 -59 21 -76 l19 -26 309 3 c269 3 311 6 322 20 18
24 15 130 -7 177 -35 77 -143 159 -241 185 -71 18 -73 18 -115 9z m130 -83
c21 -9 35 -22 37 -37 3 -22 10 -28 63 -51 16 -7 34 -22 40 -33 6 -11 25 -34
43 -52 36 -35 41 -58 15 -71 -10 -4 -134 -7 -277 -6 -300 3 -301 3 -273 76 27
69 55 108 90 124 17 9 44 22 59 30 58 32 153 41 203 20z"/>
<path d="M15409 3110 c-16 -12 -56 -24 -100 -30 -188 -27 -192 -31 -209 -221
-6 -79 -12 -187 -12 -239 7 -1600 10 -1979 17 -1998 12 -39 58 -51 155 -42
111 10 192 40 246 90 24 22 50 40 57 40 31 0 49 36 42 82 -4 25 -2 62 4 84 6
21 11 146 12 276 1 263 1 263 62 212 25 -21 36 -24 68 -19 22 4 53 1 73 -6 30
-11 47 -9 123 8 48 12 106 24 128 28 21 4 55 15 75 24 48 25 110 38 208 47 78
6 85 9 101 35 9 15 58 67 109 114 79 75 98 99 134 173 23 48 52 97 65 109 16
15 23 34 23 60 0 21 7 65 15 98 21 86 21 423 0 451 -20 27 -18 51 6 64 12 7
19 19 17 32 -3 22 -16 32 -61 48 -23 8 -38 30 -77 113 -51 109 -79 142 -150
177 -24 13 -63 42 -86 66 -24 24 -55 46 -71 49 -15 4 -75 21 -133 40 -146 46
-232 55 -544 55 -253 -1 -273 -2 -297 -20z m661 -55 c118 -22 188 -42 265 -76
11 -5 40 -25 65 -45 25 -19 67 -52 93 -72 79 -60 157 -174 219 -318 37 -88 50
-340 24 -476 -8 -40 -26 -103 -40 -139 -33 -88 -126 -230 -172 -266 -21 -15
-56 -44 -78 -63 -95 -82 -204 -135 -311 -150 -148 -21 -352 -24 -433 -6 -73
15 -112 11 -127 -14 -4 -6 -6 -109 -6 -228 1 -235 -6 -277 -62 -404 -20 -45
-36 -64 -73 -88 -60 -37 -92 -47 -181 -53 -55 -5 -74 -2 -84 9 -9 11 -11 274
-10 1107 0 600 3 1116 7 1145 6 46 11 57 38 73 34 21 33 21 231 44 77 10 174
23 215 30 125 21 268 18 420 -10z"/>
<path d="M15694 2773 c-102 -5 -115 -21 -123 -150 -3 -54 -4 -266 -1 -471 l5
-374 28 -24 c27 -23 35 -24 157 -24 71 0 153 5 182 11 53 12 136 52 194 96 17
13 36 23 42 23 17 0 82 95 88 131 4 19 12 45 19 59 7 14 18 66 24 117 25 188
-34 383 -145 476 -127 107 -252 141 -470 130z m234 -85 c36 -11 68 -29 75 -40
7 -11 26 -26 42 -34 100 -50 166 -109 184 -166 14 -44 19 -275 7 -372 -7 -60
-12 -73 -47 -111 -26 -29 -50 -44 -73 -48 -18 -3 -55 -21 -81 -41 -36 -28 -56
-36 -88 -36 -30 0 -48 -7 -67 -25 -35 -33 -85 -41 -161 -25 -102 22 -99 9 -99
431 0 338 7 450 30 473 30 30 178 27 278 -6z"/>
<path d="M18710 3121 c-124 -5 -151 -9 -186 -28 -51 -27 -177 -63 -222 -63
-25 0 -35 -5 -42 -25 -5 -14 -16 -25 -24 -25 -20 0 -53 -44 -61 -81 -16 -72
65 -219 121 -219 11 0 35 -5 51 -11 25 -8 58 -5 164 18 116 24 156 28 299 28
225 -1 257 -14 287 -119 12 -43 13 -60 4 -69 -7 -7 -70 -14 -169 -18 -86 -3
-164 -8 -172 -11 -41 -15 -133 -39 -205 -53 -44 -9 -102 -21 -130 -27 -111
-22 -121 -27 -151 -69 -15 -22 -59 -69 -96 -104 -37 -34 -68 -67 -68 -72 0 -4
-9 -25 -20 -46 -46 -85 -45 -185 2 -389 19 -82 23 -90 78 -145 123 -124 181
-163 242 -163 63 0 94 -13 110 -47 12 -25 18 -28 53 -25 22 1 76 4 120 6 51 2
118 14 185 34 58 17 123 34 145 38 53 9 72 20 80 44 3 11 15 25 26 30 20 11
67 -6 139 -53 33 -21 46 -22 206 -22 132 0 175 3 188 14 18 15 17 100 -4 386
-15 197 -21 390 -23 715 l-2 295 -43 0 c-37 0 -46 5 -82 45 -22 25 -45 62 -52
83 -16 53 -47 74 -119 82 -85 10 -206 41 -234 59 -26 17 -92 18 -395 7z m295
-56 c73 -7 138 -24 217 -56 26 -10 56 -19 68 -19 51 0 93 -34 170 -137 119
-160 114 -134 120 -678 3 -298 9 -469 16 -485 20 -47 38 -178 26 -193 -15 -18
-163 -41 -209 -32 -53 10 -90 31 -152 86 -68 61 -96 63 -155 14 -24 -19 -48
-35 -53 -35 -6 0 -26 -10 -45 -23 -54 -37 -94 -47 -236 -58 -148 -12 -277 -1
-347 30 -38 17 -99 67 -191 158 -61 60 -85 131 -91 269 -8 157 11 206 126 327
56 59 219 140 313 157 35 6 90 18 123 27 36 9 132 18 242 22 171 6 184 8 205
28 34 34 29 107 -13 189 -40 78 -50 87 -114 107 -164 51 -298 47 -506 -14 -36
-10 -90 -19 -119 -19 -51 0 -56 2 -102 50 -80 83 -63 134 63 189 24 11 62 23
84 27 22 3 56 15 76 25 51 25 309 61 384 53 17 -1 62 -6 100 -9z"/>
<path d="M18860 2210 c-116 -10 -207 -48 -263 -109 -83 -92 -53 -255 59 -330
62 -41 98 -46 234 -34 128 11 184 33 253 96 36 34 37 36 36 108 0 41 -4 109
-7 151 -10 108 -24 121 -134 124 -46 1 -126 -2 -178 -6z m221 -92 c24 -32 32
-79 23 -154 -8 -77 -32 -114 -74 -114 -16 0 -32 -4 -35 -10 -3 -5 -24 -10 -45
-10 -22 0 -54 -9 -72 -20 -55 -33 -114 -27 -173 18 -57 43 -69 80 -38 116 32
38 43 65 43 110 0 49 3 53 70 78 37 15 67 17 165 13 110 -4 121 -6 136 -27z"/>
<path d="M18743 1954 c-7 -3 -13 -15 -13 -25 0 -18 6 -20 53 -17 44 3 52 6 52
23 0 16 -7 20 -40 22 -22 1 -46 0 -52 -3z"/>
<path d="M2587 3053 c-4 -3 -7 -24 -7 -45 0 -31 5 -41 25 -50 31 -14 55 3 55
42 0 40 -50 77 -73 53z"/>
<path d="M11273 2994 c-15 -39 38 -67 60 -32 8 12 7 21 -2 32 -17 21 -50 20
-58 0z"/>
<path d="M12980 2969 c-13 -23 -10 -61 5 -66 14 -4 58 63 50 76 -11 18 -44 12
-55 -10z"/>
<path d="M2810 2835 c-21 -26 -4 -45 40 -45 33 0 40 3 40 20 0 35 -57 53 -80
25z"/>
<path d="M21681 2777 c-17 -22 -23 -70 -12 -99 20 -54 61 -23 61 46 0 61 -22
85 -49 53z"/>
<path d="M3353 2558 c-36 -12 -45 -41 -16 -52 25 -10 133 5 133 18 0 9 -69 48
-81 45 -2 -1 -19 -6 -36 -11z"/>
<path d="M3742 2288 c-16 -16 -16 -80 0 -96 21 -21 66 -14 83 12 15 22 15 27
1 54 -21 41 -60 54 -84 30z"/>
<path d="M12966 1538 c-42 -23 0 -61 62 -56 29 2 37 7 37 22 0 23 -73 48 -99
34z"/>
<path d="M4445 1520 c-19 -21 -14 -50 9 -50 24 0 60 35 53 53 -9 23 -40 21
-62 -3z"/>
</g><g transform="translate(0.000000,965.000000) scale(0.100000,-0.100000)"
fill="#e27326" stroke="none">
<path d="M5903 8275 c-33 -23 -44 -70 -33 -138 5 -31 12 -62 15 -68 4 -5 12
-76 20 -157 27 -312 58 -573 84 -707 5 -27 15 -133 21 -235 5 -102 17 -210 25
-240 14 -49 25 -131 55 -400 11 -97 27 -228 45 -360 8 -58 22 -166 30 -240 8
-74 20 -169 25 -210 6 -41 14 -135 18 -208 8 -125 10 -134 35 -159 38 -39 111
-41 262 -9 93 20 143 37 225 78 58 29 114 60 125 69 11 9 37 22 59 29 21 7 55
29 75 49 20 20 52 46 72 58 19 12 45 41 58 65 13 24 37 64 53 90 55 88 68 145
69 296 1 177 -34 329 -85 371 -9 8 -16 25 -16 40 0 14 -6 36 -13 48 -84 149
-129 242 -137 284 -6 28 -17 74 -25 102 -8 27 -18 98 -21 156 -7 109 -6 109
43 281 43 149 235 330 456 430 86 39 88 61 12 100 -28 14 -73 39 -100 56 -162
101 -496 265 -617 304 -21 6 -40 15 -43 20 -3 4 -24 11 -48 15 -23 4 -60 17
-82 28 -38 19 -82 33 -250 78 -38 10 -86 25 -105 33 -48 21 -175 53 -235 61
-37 4 -56 2 -72 -10z"/>
<path d="M11230 5641 c-30 -10 -90 -37 -133 -60 -43 -22 -84 -41 -91 -41 -8 0
-57 -20 -110 -45 -108 -50 -220 -90 -281 -101 -22 -4 -51 -12 -65 -19 -24 -12
-250 -53 -415 -75 -45 -6 -229 -10 -420 -9 -207 0 -358 -3 -385 -9 -113 -27
-208 -91 -245 -167 -23 -46 -25 -65 -31 -235 -8 -262 -36 -516 -68 -614 -14
-43 -26 -88 -26 -100 0 -43 -31 -121 -60 -151 -31 -32 -80 -128 -80 -158 0
-28 28 -75 49 -82 10 -3 42 4 70 15 29 11 59 20 67 20 9 0 77 30 152 66 76 37
160 74 187 84 28 9 84 33 125 53 97 45 208 93 240 102 14 4 90 39 170 77 136
65 234 106 460 191 52 19 109 42 125 51 17 9 34 16 40 16 10 0 40 14 195 88
47 23 110 50 140 60 58 20 238 99 255 112 6 4 43 19 83 34 39 14 114 45 165
69 113 54 191 88 281 121 38 15 74 30 80 35 6 5 38 20 71 32 74 27 143 73 157
104 9 20 5 32 -25 77 -40 61 -92 112 -157 155 -25 17 -54 41 -65 53 -11 13
-69 60 -130 105 -60 45 -118 92 -129 103 -16 19 -113 63 -134 61 -4 0 -32 -8
-62 -18z"/>
<path d="M17158 3870 c-17 -10 -18 -74 -18 -1098 0 -1103 1 -1144 37 -1184 8
-9 22 -31 31 -49 27 -52 59 -68 166 -85 82 -13 112 -14 180 -4 106 16 132 27
188 88 34 36 52 66 64 108 22 78 15 87 -74 95 -86 8 -157 40 -177 80 -13 24
-16 153 -18 911 l-3 883 -22 61 c-46 123 -137 192 -265 200 -43 3 -79 0 -89
-6z"/>
<path d="M22470 3502 c-89 -23 -156 -65 -189 -117 -26 -42 -57 -142 -81 -268
-15 -73 -24 -77 -174 -77 -151 0 -150 1 -150 -129 0 -133 3 -136 127 -137 155
-2 166 -3 186 -23 17 -17 18 -45 20 -521 l2 -503 25 -58 c59 -142 110 -193
210 -210 75 -13 251 -12 329 1 33 5 61 10 62 10 2 0 21 17 44 37 87 78 152
224 116 260 -13 14 -22 13 -79 -1 -84 -21 -164 -20 -208 2 -46 23 -88 85 -100
151 -6 30 -10 219 -10 427 l0 373 24 28 c24 27 25 28 177 34 85 4 162 10 172
14 22 9 47 59 76 148 17 53 19 72 10 83 -9 11 -51 14 -205 14 -189 0 -193 0
-221 24 l-28 24 -3 203 c-1 130 -6 207 -13 216 -15 17 -39 16 -119 -5z"/>
<path d="M15650 3065 c-41 -7 -138 -20 -215 -30 -198 -23 -197 -23 -231 -44
-27 -16 -32 -27 -38 -73 -4 -29 -7 -545 -7 -1145 -1 -833 1 -1096 10 -1107 10
-11 29 -14 84 -9 89 6 121 16 181 53 37 24 53 43 73 88 56 127 63 169 62 404
0 119 2 222 6 228 15 25 54 29 127 14 81 -18 285 -15 433 6 107 15 216 68 311
150 22 19 57 48 78 63 46 36 139 178 172 266 14 36 32 99 40 139 26 136 13
388 -24 476 -62 144 -140 258 -219 318 -26 20 -68 53 -93 72 -25 20 -54 40
-65 45 -191 84 -481 121 -685 86z m310 -311 c93 -21 215 -102 266 -178 35 -51
71 -154 84 -241 13 -82 -1 -235 -25 -285 -7 -14 -15 -40 -19 -59 -6 -36 -71
-131 -88 -131 -6 0 -25 -10 -42 -23 -58 -44 -141 -84 -194 -96 -29 -6 -111
-11 -182 -11 -122 0 -130 1 -157 24 l-28 24 -5 374 c-3 205 -2 417 1 471 8
129 21 145 123 150 96 5 188 -2 266 -19z"/>
<path d="M18795 3070 c-137 -13 -238 -31 -274 -49 -20 -10 -54 -22 -76 -25
-22 -4 -60 -16 -84 -27 -126 -55 -143 -106 -63 -189 46 -48 51 -50 102 -50 29
0 83 9 119 19 208 61 342 65 506 14 64 -20 74 -29 114 -107 42 -82 47 -155 13
-189 -21 -20 -34 -22 -205 -28 -110 -4 -206 -13 -242 -22 -33 -9 -88 -21 -123
-27 -94 -17 -257 -98 -313 -157 -115 -121 -134 -170 -126 -327 6 -138 30 -209
91 -269 92 -91 153 -141 191 -158 70 -31 199 -42 347 -30 142 11 182 21 236
58 19 13 39 23 45 23 5 0 29 16 53 35 59 49 87 47 155 -14 62 -55 99 -76 152
-86 46 -9 194 14 209 32 12 15 -6 146 -26 193 -7 16 -13 187 -16 485 -6 544
-1 518 -120 678 -77 103 -119 137 -170 137 -12 0 -42 9 -68 19 -79 32 -144 49
-217 56 -38 3 -83 8 -100 9 -16 2 -66 0 -110 -4z m348 -878 c23 -24 35 -103
36 -251 1 -72 0 -74 -36 -108 -69 -63 -125 -85 -253 -96 -136 -12 -172 -7
-234 34 -79 53 -120 155 -102 254 10 52 68 111 145 147 73 33 183 47 339 44
70 -2 86 -6 105 -24z"/>
<path d="M10100 3054 c-108 -20 -223 -59 -267 -91 -86 -63 -181 -158 -230
-232 -66 -97 -131 -307 -140 -452 -5 -86 -3 -108 25 -216 52 -199 83 -266 185
-388 15 -18 48 -45 72 -60 25 -14 45 -30 45 -35 0 -5 48 -32 108 -61 84 -40
123 -54 182 -60 164 -20 285 -21 435 -5 149 16 150 16 262 73 63 31 118 62
124 70 33 39 -45 135 -129 159 -60 18 -85 16 -235 -15 -129 -27 -244 -27 -343
0 -131 36 -201 87 -266 193 -33 54 -43 81 -46 126 -4 49 -1 61 17 79 21 21 25
21 544 21 393 0 526 3 535 12 8 8 12 47 12 111 0 114 -42 304 -85 385 -14 26
-25 52 -25 59 0 6 -10 19 -21 27 -12 8 -27 25 -33 37 -6 13 -53 60 -104 105
-76 67 -106 86 -165 107 -83 29 -141 42 -250 57 -93 12 -109 11 -207 -6z m200
-264 c98 -26 206 -108 241 -185 22 -47 25 -153 7 -177 -11 -14 -53 -17 -322
-20 l-309 -3 -19 26 c-13 17 -20 44 -21 76 -2 40 4 57 28 93 17 23 37 53 45
65 39 57 140 115 235 134 42 9 44 9 115 -9z"/>
<path d="M12115 3055 c-60 -6 -126 -15 -145 -19 -96 -20 -234 -97 -346 -192
-54 -47 -151 -182 -183 -257 -46 -106 -69 -353 -45 -478 8 -41 14 -88 14 -105
0 -51 95 -219 177 -310 79 -88 305 -215 413 -232 123 -20 277 -24 402 -13 178
17 219 27 321 79 74 38 93 52 95 71 6 42 -28 124 -73 175 l-42 49 -33 -17
c-18 -9 -40 -16 -49 -16 -9 0 -35 -9 -56 -20 -68 -35 -159 -45 -296 -33 -114
10 -127 13 -215 57 -79 39 -102 57 -146 109 -28 34 -64 89 -79 122 -58 123
-58 308 -1 445 32 76 102 168 146 192 13 7 45 26 71 42 104 64 229 84 390 61
160 -22 251 -20 299 8 48 27 92 103 82 141 -14 56 -153 105 -391 137 -157 21
-157 21 -310 4z"/>
<path d="M13765 3054 c-66 -9 -140 -24 -164 -35 -24 -10 -49 -19 -55 -19 -23
0 -133 -65 -198 -117 -75 -59 -140 -145 -191 -249 -64 -129 -84 -369 -51 -593
13 -87 22 -119 55 -181 75 -140 186 -259 284 -307 28 -13 61 -30 75 -38 109
-61 260 -79 525 -64 l170 9 92 46 c166 83 265 161 309 246 8 15 25 44 39 64
14 20 30 54 35 76 6 21 19 53 30 71 54 94 55 454 1 572 -11 22 -22 55 -25 74
-3 18 -18 53 -33 78 -33 53 -159 199 -178 206 -7 3 -40 26 -72 51 -73 55 -116
71 -263 97 -157 27 -244 30 -385 13z m270 -278 c83 -18 145 -53 194 -109 58
-68 111 -183 123 -270 13 -95 4 -318 -16 -383 -21 -66 -78 -150 -139 -203 -64
-54 -87 -65 -180 -86 -69 -15 -89 -16 -155 -5 -200 32 -290 113 -349 313 -64
217 -25 468 96 624 84 109 255 156 426 119z"/>
<path d="M20810 3045 c-14 -8 -33 -14 -43 -15 -38 0 -159 -51 -217 -90 -109
-74 -133 -74 -199 2 -18 21 -45 45 -60 52 -62 32 -257 40 -281 11 -7 -8 -5
-54 5 -146 12 -105 15 -271 15 -756 0 -599 1 -623 19 -632 10 -6 93 -10 189
-10 147 0 172 2 185 17 13 15 15 89 15 543 0 424 2 532 13 555 22 45 116 110
199 138 119 40 189 42 286 12 68 -22 89 -34 122 -70 42 -45 78 -107 94 -161 5
-16 9 -251 8 -522 0 -462 1 -493 17 -501 28 -15 360 -13 373 3 6 8 10 197 11
561 1 692 3 674 -134 831 -103 118 -192 162 -372 183 -125 14 -215 12 -245 -5z"/>
</g><g transform="translate(0.000000,965.000000) scale(0.100000,-0.100000)"
fill="#ca2b30" stroke="none">
<path d="M7615 7466 c-49 -19 -112 -47 -140 -62 -66 -37 -175 -124 -214 -170
-35 -43 -94 -160 -110 -219 -23 -85 -8 -266 31 -370 18 -49 130 -278 148 -305
10 -14 22 -41 28 -60 6 -19 20 -61 31 -92 54 -148 62 -343 21 -504 -36 -141
-142 -306 -248 -386 -97 -74 -91 -79 100 -77 90 0 218 -2 284 -6 l122 -8 18
29 c10 16 41 52 69 79 28 28 125 135 215 239 91 105 205 235 253 290 411 468
420 478 475 534 29 28 57 52 63 52 22 0 20 -33 -6 -97 -15 -38 -40 -102 -55
-143 -15 -41 -37 -100 -50 -130 -42 -105 -127 -329 -151 -399 -11 -30 -23 -59
-28 -65 -4 -6 -25 -60 -46 -121 -20 -60 -41 -114 -45 -120 -10 -13 -70 -163
-70 -176 0 -5 -9 -28 -19 -52 -40 -88 -71 -175 -71 -200 0 -16 13 -42 34 -64
80 -90 264 -387 358 -577 17 -33 38 -83 49 -112 21 -56 54 -93 68 -78 14 14
63 143 78 204 8 30 18 71 24 92 5 20 16 159 24 310 25 441 50 538 167 642 34
30 76 58 93 62 16 4 48 16 70 27 39 21 54 21 460 22 410 0 424 1 585 28 91 15
201 38 245 51 175 52 290 89 300 96 6 4 28 13 50 20 62 20 263 120 268 133 9
24 -6 38 -86 78 -45 23 -93 49 -107 58 -14 10 -50 28 -80 41 -30 12 -105 46
-167 76 -61 29 -126 57 -145 62 -18 6 -76 28 -128 50 -52 22 -110 43 -129 47
-19 4 -48 16 -65 26 -17 10 -39 19 -48 19 -10 0 -50 11 -90 24 -64 21 -152 42
-418 101 -160 36 -440 75 -620 86 -218 13 -207 9 -273 99 -191 259 -565 646
-757 781 -30 22 -93 69 -139 104 -56 44 -92 65 -110 64 -14 0 -66 -15 -116
-33z"/>
<path d="M3417 4390 c-31 -5 -87 -18 -123 -30 -36 -11 -74 -20 -84 -20 -17 0
-118 -41 -150 -60 -8 -6 -32 -19 -52 -30 -97 -53 -199 -144 -264 -236 -119
-171 -147 -261 -148 -469 -1 -178 15 -241 103 -404 36 -67 156 -177 303 -280
76 -54 259 -148 429 -220 395 -169 523 -290 488 -459 -10 -49 -19 -64 -73
-117 -54 -53 -71 -64 -151 -90 -86 -29 -98 -30 -255 -29 -146 0 -176 3 -267
27 -117 31 -225 72 -337 128 -43 21 -84 39 -91 39 -23 0 -55 -50 -203 -315
-30 -55 -62 -108 -69 -117 -27 -31 -12 -60 51 -96 91 -53 350 -137 501 -162
72 -12 133 -24 137 -26 4 -3 84 -9 179 -15 281 -16 496 11 723 90 32 12 64 25
70 29 6 5 27 15 46 22 49 19 176 105 234 159 64 61 163 193 193 260 86 191 86
493 0 663 -65 129 -184 262 -302 339 -56 37 -231 139 -237 139 -3 0 -84 38
-179 84 -96 46 -192 89 -214 96 -120 38 -270 142 -305 210 -86 169 0 324 204
366 60 12 106 15 190 10 61 -4 182 -9 268 -12 151 -6 159 -5 210 18 83 39 141
103 198 219 50 102 62 157 37 177 -11 9 -64 25 -182 53 -233 55 -295 62 -560
65 -143 1 -286 -1 -318 -6z"/>
<path d="M5160 4341 l-25 -7 -3 -1433 c-1 -976 1 -1438 8 -1452 14 -24 85 -26
208 -3 194 36 349 141 412 280 65 142 69 176 70 565 2 287 5 358 16 377 8 12
21 22 28 22 14 0 91 -85 122 -136 11 -17 36 -50 56 -75 49 -58 186 -226 268
-330 84 -106 116 -146 198 -247 73 -90 114 -143 164 -211 18 -24 67 -85 109
-135 l76 -91 427 -3 c488 -3 472 -6 394 76 -45 47 -164 186 -226 265 -19 23
-51 60 -71 82 -20 22 -64 74 -96 115 -33 41 -90 109 -127 151 -38 41 -79 89
-91 106 -12 17 -71 87 -132 155 -60 69 -163 187 -228 264 -65 76 -139 163
-165 192 -62 71 -74 95 -63 124 8 21 92 119 285 332 125 139 170 189 231 261
33 39 89 102 125 141 36 38 101 112 145 164 44 52 118 137 165 190 195 218
213 241 201 253 -13 13 -722 20 -782 8 -37 -8 -73 -47 -326 -363 -161 -200
-179 -223 -233 -287 -29 -36 -75 -91 -100 -121 -25 -30 -59 -73 -75 -95 -16
-22 -50 -63 -75 -91 -25 -28 -73 -86 -108 -128 -35 -42 -69 -76 -76 -76 -37 0
-38 17 -36 583 1 519 0 554 -17 569 -16 13 -60 16 -323 16 -168 0 -316 -3
-330 -7z"/>
</g></svg>